<?xml version="1.0" encoding="utf-8" standalone="no"?>
<!DOCTYPE svg PUBLIC "-//W3C//DTD SVG 1.1//EN"
  "http://www.w3.org/Graphics/SVG/1.1/DTD/svg11.dtd">
<!-- Created with matplotlib (http://matplotlib.org/) -->
<svg height="345.6pt" version="1.1" viewBox="0 0 460.8 345.6" width="460.8pt" xmlns="http://www.w3.org/2000/svg" xmlns:xlink="http://www.w3.org/1999/xlink">
 <defs>
  <style type="text/css">
*{stroke-linecap:butt;stroke-linejoin:round;}
  </style>
 </defs>
 <g id="figure_1">
  <g id="patch_1">
   <path d="M 0 345.6 
L 460.8 345.6 
L 460.8 0 
L 0 0 
z
" style="fill:#ffffff;"/>
  </g>
  <g id="axes_1">
   <g id="patch_2">
    <path d="M 41.842671 303.119721 
L 441.144293 303.119721 
L 441.144293 26.771208 
L 41.842671 26.771208 
z
" style="fill:#ffffff;"/>
   </g>
   <g id="patch_3">
    <path clip-path="url(#pb9b42d6336)" d="M 122.080729 303.119721 
L 145.417449 303.119721 
L 145.417449 275.48487 
L 122.080729 275.48487 
z
" style="fill:#1f77b4;"/>
   </g>
   <g id="patch_4">
    <path clip-path="url(#pb9b42d6336)" d="M 145.417449 303.119721 
L 168.754168 303.119721 
L 168.754168 286.53881 
L 145.417449 286.53881 
z
" style="fill:#1f77b4;"/>
   </g>
   <g id="patch_5">
    <path clip-path="url(#pb9b42d6336)" d="M 168.754168 303.119721 
L 192.090887 303.119721 
L 192.090887 242.323048 
L 168.754168 242.323048 
z
" style="fill:#1f77b4;"/>
   </g>
   <g id="patch_6">
    <path clip-path="url(#pb9b42d6336)" d="M 192.090887 303.119721 
L 215.427607 303.119721 
L 215.427607 231.269108 
L 192.090887 231.269108 
z
" style="fill:#1f77b4;"/>
   </g>
   <g id="patch_7">
    <path clip-path="url(#pb9b42d6336)" d="M 215.427607 303.119721 
L 238.764326 303.119721 
L 238.764326 153.891524 
L 215.427607 153.891524 
z
" style="fill:#1f77b4;"/>
   </g>
   <g id="patch_8">
    <path clip-path="url(#pb9b42d6336)" d="M 238.764326 303.119721 
L 262.101045 303.119721 
L 262.101045 104.148792 
L 238.764326 104.148792 
z
" style="fill:#1f77b4;"/>
   </g>
   <g id="patch_9">
    <path clip-path="url(#pb9b42d6336)" d="M 262.101045 303.119721 
L 285.437765 303.119721 
L 285.437765 126.256673 
L 262.101045 126.256673 
z
" style="fill:#1f77b4;"/>
   </g>
   <g id="patch_10">
    <path clip-path="url(#pb9b42d6336)" d="M 285.437765 303.119721 
L 308.774484 303.119721 
L 308.774484 126.256673 
L 285.437765 126.256673 
z
" style="fill:#1f77b4;"/>
   </g>
   <g id="patch_11">
    <path clip-path="url(#pb9b42d6336)" d="M 308.774484 303.119721 
L 332.111203 303.119721 
L 332.111203 159.418494 
L 308.774484 159.418494 
z
" style="fill:#1f77b4;"/>
   </g>
   <g id="patch_12">
    <path clip-path="url(#pb9b42d6336)" d="M 332.111203 303.119721 
L 355.447923 303.119721 
L 355.447923 242.323048 
L 332.111203 242.323048 
z
" style="fill:#1f77b4;"/>
   </g>
   <g id="patch_13">
    <path clip-path="url(#pb9b42d6336)" d="M 355.447923 303.119721 
L 378.784642 303.119721 
L 378.784642 269.9579 
L 355.447923 269.9579 
z
" style="fill:#1f77b4;"/>
   </g>
   <g id="patch_14">
    <path clip-path="url(#pb9b42d6336)" d="M 378.784642 303.119721 
L 402.121361 303.119721 
L 402.121361 297.592751 
L 378.784642 297.592751 
z
" style="fill:#1f77b4;"/>
   </g>
   <g id="matplotlib.axis_1">
    <g id="xtick_1">
     <g id="line2d_1">
      <defs>
       <path d="M 0 0 
L 0 3.5 
" id="mbfc357249a" style="stroke:#000000;stroke-width:0.8;"/>
      </defs>
      <g>
       <use style="stroke:#000000;stroke-width:0.8;" x="41.842671" xlink:href="#mbfc357249a" y="303.119721"/>
      </g>
     </g>
     <g id="text_1">
      <!-- $3.00$ -->
      <defs>
       <path d="M 22.09375 33.703125 
C 31 33.703125 34.90625 25.96875 34.90625 17.03125 
C 34.90625 5 28.5 0.390625 22.703125 0.390625 
C 17.40625 0.390625 8.796875 3.03125 6.09375 10.828125 
C 6.59375 10.625 7.09375 10.625 7.59375 10.625 
C 10 10.625 11.796875 12.21875 11.796875 14.8125 
C 11.796875 17.703125 9.59375 19 7.59375 19 
C 5.90625 19 3.296875 18.203125 3.296875 14.46875 
C 3.296875 5.234375 12.296875 -2 22.90625 -2 
C 34 -2 42.5 6.71875 42.5 16.953125 
C 42.5 26.671875 34.5 33.703125 25 34.796875 
C 32.59375 36.375 39.90625 43.0625 39.90625 52.015625 
C 39.90625 59.6875 32 65.296875 23 65.296875 
C 13.90625 65.296875 5.90625 59.828125 5.90625 52.015625 
C 5.90625 48.59375 8.5 48 9.796875 48 
C 11.90625 48 13.703125 49.296875 13.703125 51.890625 
C 13.703125 54.46875 11.90625 55.765625 9.796875 55.765625 
C 9.40625 55.765625 8.90625 55.765625 8.5 55.578125 
C 11.40625 61.859375 19.296875 63 22.796875 63 
C 26.296875 63 32.90625 61.328125 32.90625 51.875 
C 32.90625 49.109375 32.5 44.1875 29.09375 39.84375 
C 26.09375 36 22.703125 36 19.40625 35.6875 
C 18.90625 35.6875 16.59375 35.453125 16.203125 35.453125 
C 15.5 35.359375 15.09375 35.265625 15.09375 34.5 
C 15.09375 33.796875 15.203125 33.703125 17.203125 33.703125 
z
" id="CMR17-51"/>
       <path d="M 18.40625 4.796875 
C 18.40625 7.6875 16 9.671875 13.59375 9.671875 
C 10.703125 9.671875 8.703125 7.28125 8.703125 4.890625 
C 8.703125 2 11.09375 0 13.5 0 
C 16.40625 0 18.40625 2.390625 18.40625 4.796875 
z
" id="CMMI12-58"/>
       <path d="M 42 31.640625 
C 42 37.75 41.90625 48.125 37.703125 56.109375 
C 34 63.109375 28.09375 65.59375 22.90625 65.59375 
C 18.09375 65.59375 12 63.40625 8.203125 56.203125 
C 4.203125 48.71875 3.796875 39.4375 3.796875 31.640625 
C 3.796875 25.953125 3.90625 17.28125 7 9.671875 
C 11.296875 -0.609375 19 -2 22.90625 -2 
C 27.5 -2 34.5 -0.109375 38.59375 9.375 
C 41.59375 16.28125 42 24.359375 42 31.640625 
z
M 22.90625 -0.40625 
C 16.5 -0.40625 12.703125 5.078125 11.296875 12.6875 
C 10.203125 18.5625 10.203125 27.15625 10.203125 32.75 
C 10.203125 40.4375 10.203125 46.828125 11.5 52.921875 
C 13.40625 61.390625 19 64 22.90625 64 
C 27 64 32.296875 61.296875 34.203125 53.125 
C 35.5 47.4375 35.59375 40.734375 35.59375 32.75 
C 35.59375 26.25 35.59375 18.265625 34.40625 12.375 
C 32.296875 1.484375 26.40625 -0.40625 22.90625 -0.40625 
z
" id="CMR17-48"/>
      </defs>
      <g transform="translate(32.986963 317.03822)scale(0.1 -0.1)">
       <use transform="scale(0.996264)" xlink:href="#CMR17-51"/>
       <use transform="translate(45.690477 0)scale(0.996264)" xlink:href="#CMMI12-58"/>
       <use transform="translate(72.787654 0)scale(0.996264)" xlink:href="#CMR17-48"/>
       <use transform="translate(118.478131 0)scale(0.996264)" xlink:href="#CMR17-48"/>
      </g>
     </g>
    </g>
    <g id="xtick_2">
     <g id="line2d_2">
      <g>
       <use style="stroke:#000000;stroke-width:0.8;" x="91.755373" xlink:href="#mbfc357249a" y="303.119721"/>
      </g>
     </g>
     <g id="text_2">
      <!-- $3.25$ -->
      <defs>
       <path d="M 41.703125 15.453125 
L 39.90625 15.453125 
C 38.90625 8.375 38.09375 7.171875 37.703125 6.5625 
C 37.203125 5.765625 30 5.765625 28.59375 5.765625 
L 9.40625 5.765625 
C 13 9.671875 20 16.75 28.5 24.953125 
C 34.59375 30.734375 41.703125 37.53125 41.703125 47.421875 
C 41.703125 59.21875 32.296875 66 21.796875 66 
C 10.796875 66 4.09375 56.3125 4.09375 47.34375 
C 4.09375 43.4375 7 42.9375 8.203125 42.9375 
C 9.203125 42.9375 12.203125 43.546875 12.203125 47.03125 
C 12.203125 50.109375 9.59375 51 8.203125 51 
C 7.59375 51 7 50.90625 6.59375 50.703125 
C 8.5 59.21875 14.296875 63.40625 20.40625 63.40625 
C 29.09375 63.40625 34.796875 56.515625 34.796875 47.421875 
C 34.796875 38.734375 29.703125 31.25 24 24.75 
L 4.09375 2.28125 
L 4.09375 0 
L 39.296875 0 
z
" id="CMR17-50"/>
       <path d="M 11.40625 57.6875 
C 12.40625 57.28125 16.5 56 20.703125 56 
C 30 56 35.09375 61.109375 38 64.0625 
C 38 64.953125 38 65.5 37.40625 65.5 
C 37.296875 65.5 37.09375 65.5 36.296875 65.046875 
C 32.796875 63.40625 28.703125 62.078125 23.703125 62.078125 
C 20.703125 62.078125 16.203125 62.484375 11.296875 64.671875 
C 10.203125 65.171875 10 65.171875 9.90625 65.171875 
C 9.40625 65.171875 9.296875 65.0625 9.296875 63.078125 
L 9.296875 34.421875 
C 9.296875 32.640625 9.296875 32.140625 10.296875 32.140625 
C 10.796875 32.140625 11 32.34375 11.5 33.03125 
C 14.703125 37.515625 19.09375 39.40625 24.09375 39.40625 
C 27.59375 39.40625 35.09375 37.21875 35.09375 20.140625 
C 35.09375 16.953125 35.09375 11.171875 32.09375 6.578125 
C 29.59375 2.484375 25.703125 0.390625 21.40625 0.390625 
C 14.796875 0.390625 8.09375 5 6.296875 12.71875 
C 6.703125 12.609375 7.5 12.421875 7.90625 12.421875 
C 9.203125 12.421875 11.703125 13.125 11.703125 16.21875 
C 11.703125 18.90625 9.796875 20 7.90625 20 
C 5.59375 20 4.09375 18.59375 4.09375 15.796875 
C 4.09375 7.09375 11 -2 21.59375 -2 
C 31.90625 -2 41.703125 6.875 41.703125 19.75 
C 41.703125 31.71875 33.90625 41 24.203125 41 
C 19.09375 41 14.796875 39.109375 11.40625 35.53125 
z
" id="CMR17-53"/>
      </defs>
      <g transform="translate(82.899666 317.03822)scale(0.1 -0.1)">
       <use transform="scale(0.996264)" xlink:href="#CMR17-51"/>
       <use transform="translate(45.690477 0)scale(0.996264)" xlink:href="#CMMI12-58"/>
       <use transform="translate(72.787654 0)scale(0.996264)" xlink:href="#CMR17-50"/>
       <use transform="translate(118.478131 0)scale(0.996264)" xlink:href="#CMR17-53"/>
      </g>
     </g>
    </g>
    <g id="xtick_3">
     <g id="line2d_3">
      <g>
       <use style="stroke:#000000;stroke-width:0.8;" x="141.668076" xlink:href="#mbfc357249a" y="303.119721"/>
      </g>
     </g>
     <g id="text_3">
      <!-- $3.50$ -->
      <g transform="translate(132.812369 317.03822)scale(0.1 -0.1)">
       <use transform="scale(0.996264)" xlink:href="#CMR17-51"/>
       <use transform="translate(45.690477 0)scale(0.996264)" xlink:href="#CMMI12-58"/>
       <use transform="translate(72.787654 0)scale(0.996264)" xlink:href="#CMR17-53"/>
       <use transform="translate(118.478131 0)scale(0.996264)" xlink:href="#CMR17-48"/>
      </g>
     </g>
    </g>
    <g id="xtick_4">
     <g id="line2d_4">
      <g>
       <use style="stroke:#000000;stroke-width:0.8;" x="191.580779" xlink:href="#mbfc357249a" y="303.119721"/>
      </g>
     </g>
     <g id="text_4">
      <!-- $3.75$ -->
      <defs>
       <path d="M 45.09375 61.578125 
L 45.09375 63.765625 
L 21.59375 63.765625 
C 9.90625 63.765625 9.703125 65.078125 9.296875 67 
L 7.5 67 
L 4.59375 48.34375 
L 6.40625 48.34375 
C 6.703125 50.234375 7.40625 55.3125 8.59375 57.203125 
C 9.203125 58 16.59375 58 18.296875 58 
L 40.296875 58 
L 29.203125 41.578125 
C 21.796875 30.53125 16.703125 15.609375 16.703125 2.578125 
C 16.703125 1.390625 16.703125 -2 20.296875 -2 
C 23.90625 -2 23.90625 1.390625 23.90625 2.671875 
L 23.90625 7.265625 
C 23.90625 23.5625 26.703125 34.3125 31.296875 41.1875 
z
" id="CMR17-55"/>
      </defs>
      <g transform="translate(182.725072 317.03822)scale(0.1 -0.1)">
       <use transform="scale(0.996264)" xlink:href="#CMR17-51"/>
       <use transform="translate(45.690477 0)scale(0.996264)" xlink:href="#CMMI12-58"/>
       <use transform="translate(72.787654 0)scale(0.996264)" xlink:href="#CMR17-55"/>
       <use transform="translate(118.478131 0)scale(0.996264)" xlink:href="#CMR17-53"/>
      </g>
     </g>
    </g>
    <g id="xtick_5">
     <g id="line2d_5">
      <g>
       <use style="stroke:#000000;stroke-width:0.8;" x="241.493482" xlink:href="#mbfc357249a" y="303.119721"/>
      </g>
     </g>
     <g id="text_5">
      <!-- $4.00$ -->
      <defs>
       <path d="M 33.59375 64.40625 
C 33.59375 66.5 33.5 66.5 31.703125 66.5 
L 2 19.59375 
L 2 17 
L 27.796875 17 
L 27.796875 7.140625 
C 27.796875 3.5 27.59375 2.5 20.59375 2.5 
L 18.703125 2.5 
L 18.703125 0 
C 21.90625 0 27.296875 0 30.703125 0 
C 34.09375 0 39.5 0 42.703125 0 
L 42.703125 2.5 
L 40.796875 2.5 
C 33.796875 2.5 33.59375 3.5 33.59375 7.140625 
L 33.59375 17 
L 43.796875 17 
L 43.796875 19.59375 
L 33.59375 19.59375 
z
M 28.09375 57.859375 
L 28.09375 19.59375 
L 4 19.59375 
z
" id="CMR17-52"/>
      </defs>
      <g transform="translate(232.637775 317.03822)scale(0.1 -0.1)">
       <use transform="scale(0.996264)" xlink:href="#CMR17-52"/>
       <use transform="translate(45.690477 0)scale(0.996264)" xlink:href="#CMMI12-58"/>
       <use transform="translate(72.787654 0)scale(0.996264)" xlink:href="#CMR17-48"/>
       <use transform="translate(118.478131 0)scale(0.996264)" xlink:href="#CMR17-48"/>
      </g>
     </g>
    </g>
    <g id="xtick_6">
     <g id="line2d_6">
      <g>
       <use style="stroke:#000000;stroke-width:0.8;" x="291.406184" xlink:href="#mbfc357249a" y="303.119721"/>
      </g>
     </g>
     <g id="text_6">
      <!-- $4.25$ -->
      <g transform="translate(282.550477 317.03822)scale(0.1 -0.1)">
       <use transform="scale(0.996264)" xlink:href="#CMR17-52"/>
       <use transform="translate(45.690477 0)scale(0.996264)" xlink:href="#CMMI12-58"/>
       <use transform="translate(72.787654 0)scale(0.996264)" xlink:href="#CMR17-50"/>
       <use transform="translate(118.478131 0)scale(0.996264)" xlink:href="#CMR17-53"/>
      </g>
     </g>
    </g>
    <g id="xtick_7">
     <g id="line2d_7">
      <g>
       <use style="stroke:#000000;stroke-width:0.8;" x="341.318887" xlink:href="#mbfc357249a" y="303.119721"/>
      </g>
     </g>
     <g id="text_7">
      <!-- $4.50$ -->
      <g transform="translate(332.46318 317.03822)scale(0.1 -0.1)">
       <use transform="scale(0.996264)" xlink:href="#CMR17-52"/>
       <use transform="translate(45.690477 0)scale(0.996264)" xlink:href="#CMMI12-58"/>
       <use transform="translate(72.787654 0)scale(0.996264)" xlink:href="#CMR17-53"/>
       <use transform="translate(118.478131 0)scale(0.996264)" xlink:href="#CMR17-48"/>
      </g>
     </g>
    </g>
    <g id="xtick_8">
     <g id="line2d_8">
      <g>
       <use style="stroke:#000000;stroke-width:0.8;" x="391.23159" xlink:href="#mbfc357249a" y="303.119721"/>
      </g>
     </g>
     <g id="text_8">
      <!-- $4.75$ -->
      <g transform="translate(382.375883 317.03822)scale(0.1 -0.1)">
       <use transform="scale(0.996264)" xlink:href="#CMR17-52"/>
       <use transform="translate(45.690477 0)scale(0.996264)" xlink:href="#CMMI12-58"/>
       <use transform="translate(72.787654 0)scale(0.996264)" xlink:href="#CMR17-55"/>
       <use transform="translate(118.478131 0)scale(0.996264)" xlink:href="#CMR17-53"/>
      </g>
     </g>
    </g>
    <g id="xtick_9">
     <g id="line2d_9">
      <g>
       <use style="stroke:#000000;stroke-width:0.8;" x="441.144293" xlink:href="#mbfc357249a" y="303.119721"/>
      </g>
     </g>
     <g id="text_9">
      <!-- $5.00$ -->
      <g transform="translate(432.288586 317.03822)scale(0.1 -0.1)">
       <use transform="scale(0.996264)" xlink:href="#CMR17-53"/>
       <use transform="translate(45.690477 0)scale(0.996264)" xlink:href="#CMMI12-58"/>
       <use transform="translate(72.787654 0)scale(0.996264)" xlink:href="#CMR17-48"/>
       <use transform="translate(118.478131 0)scale(0.996264)" xlink:href="#CMR17-48"/>
      </g>
     </g>
    </g>
    <g id="text_10">
     <!-- log syn. area ($log_{10}(nm^2)$) -->
     <defs>
      <path d="M 14.796875 69 
L 7.40625 69 
L 7.40625 0 
L 14.796875 0 
z
" id="CMSS17-108"/>
      <path d="M 44.203125 21.1875 
C 44.203125 34 34.703125 44 23.5 44 
C 12 44 2.703125 33.703125 2.703125 21.1875 
C 2.703125 8.5 12.296875 -1 23.40625 -1 
C 34.796875 -1 44.203125 8.796875 44.203125 21.1875 
z
M 23.5 5.265625 
C 16.40625 5.265625 10.296875 11.078125 10.296875 22 
C 10.296875 33.609375 17.40625 37.921875 23.40625 37.921875 
C 29.90625 37.921875 36.59375 33.21875 36.59375 22 
C 36.59375 10.671875 30.09375 5.265625 23.5 5.265625 
z
" id="CMSS17-111"/>
      <path d="M 44.5 43.875 
C 38.796875 43.875 33.90625 42.78125 29.90625 40.890625 
C 26.59375 43.390625 23.203125 43.875 20.90625 43.875 
C 12.203125 43.875 5.59375 36.703125 5.59375 28.34375 
C 5.59375 22.9375 8.59375 18.859375 8.796875 18.671875 
C 7 16.171875 6 13.484375 6 10.5 
C 6 7 7.40625 4.515625 8.5 3.125 
C 3.296875 -0.046875 2.59375 -4.90625 2.59375 -6.796875 
C 2.59375 -14.03125 11.703125 -20 23.40625 -20 
C 35.203125 -20 44.296875 -14.03125 44.296875 -6.6875 
C 44.296875 7 29 7 24.796875 7 
L 16.703125 7 
C 15.203125 7 11.203125 7 11.203125 12.359375 
C 11.203125 14.390625 12.09375 15.6875 12.203125 15.78125 
C 13.703125 14.6875 16.796875 13 20.90625 13 
C 29.203125 13 36.09375 19.96875 36.09375 28.546875 
C 36.09375 33.3125 33.90625 36.796875 33 38 
L 33.296875 38 
C 33.59375 38 37.796875 38 39.296875 38 
C 42.5 38 42.796875 37.953125 45.59375 37.796875 
z
M 20.90625 18.46875 
C 17.5 18.46875 12.703125 20.546875 12.703125 28.484375 
C 12.703125 37.109375 18.203125 38.5 20.796875 38.5 
C 24.203125 38.5 29 36.421875 29 28.484375 
C 29 19.859375 23.5 18.46875 20.90625 18.46875 
z
M 24.703125 -0.15625 
C 27.09375 -0.15625 37.203125 -0.15625 37.203125 -6.90625 
C 37.203125 -11.15625 31 -14.515625 23.5 -14.515625 
C 15.90625 -14.515625 9.703125 -11.25 9.703125 -6.796875 
C 9.703125 -6.296875 9.703125 -0.15625 16.59375 -0.15625 
z
" id="CMSS17-103"/>
      <path d="M 32.203125 41.046875 
C 26.296875 43.859375 21.703125 43.859375 18.703125 43.859375 
C 11.59375 43.859375 3.09375 41.375 3.09375 31.296875 
C 3.09375 21.234375 14.09375 19.03125 17.09375 18.421875 
C 21.703125 17.53125 26.796875 16.53125 26.796875 11.5625 
C 26.796875 5.265625 19.59375 5.265625 18.296875 5.265625 
C 14.296875 5.265625 8.796875 6.359375 3.796875 9.96875 
L 2.59375 3.28125 
C 8.296875 0 13.796875 -1 18.40625 -1 
C 30.703125 -1 33.796875 6.5 33.796875 12.203125 
C 33.796875 17.09375 31 20.390625 29.09375 21.890625 
C 25.796875 24.5 24.59375 24.796875 16.40625 26.5 
C 15 26.703125 10.09375 27.796875 10.09375 32.28125 
C 10.09375 38 16.40625 38 17.796875 38 
C 24.296875 38 28.296875 35.984375 31 34.5 
z
" id="CMSS17-115"/>
      <path d="M 41.796875 43 
L 34 43 
C 25.5 20.21875 22.59375 10.96875 22.40625 5.984375 
L 22.296875 5.984375 
C 22 10.875 17.59375 22.8125 14.09375 31.359375 
L 9.40625 43 
L 1.296875 43 
L 19 0.203125 
C 17.90625 -2.78125 16.296875 -7.265625 15.796875 -8.265625 
C 13.59375 -13.828125 12.09375 -13.828125 10.5 -13.828125 
C 10.09375 -13.828125 6.90625 -13.828125 3.296875 -12.640625 
L 3.90625 -19.203125 
C 6.40625 -19.703125 8.90625 -20 10.703125 -20 
C 13.203125 -20 18.203125 -20 22.796875 -7.765625 
z
" id="CMSS17-121"/>
      <path d="M 40.90625 29.328125 
C 40.90625 35.671875 39.40625 44 28.09375 44 
C 21.703125 44 17.5 40.71875 14.703125 37.328125 
L 14.703125 43.09375 
L 7.40625 43.09375 
L 7.40625 0 
L 15 0 
L 15 24.359375 
C 15 30.6875 17.40625 37.9375 24.203125 37.9375 
C 33 37.9375 33.296875 32 33.296875 28.578125 
L 33.296875 0 
L 40.90625 0 
z
" id="CMSS17-110"/>
      <path d="M 17 7.96875 
L 9 7.96875 
L 9 0 
L 17 0 
z
" id="CMSS17-46"/>
      <path d="M 37.59375 27.984375 
C 37.59375 37.375 30.90625 43.875 21.90625 43.875 
C 17.5 43.875 12.703125 43.078125 7.203125 39.890625 
L 7.796875 33.359375 
C 10.296875 35.125 14.59375 38 21.796875 38 
C 26.90625 38 30 34.0625 30 27.84375 
L 30 24 
C 14 24 4 19.34375 4 11.34375 
C 4 7.203125 6.5 -1 14.796875 -1 
C 16.296875 -1 24.40625 -1 30.203125 3.390625 
L 30.203125 -0.296875 
L 37.59375 -0.296875 
z
M 30 12.75 
C 30 10.953125 30 8.5625 27 6.78125 
C 24.40625 5.078125 21.09375 5.078125 19.703125 5.078125 
C 14.703125 5.078125 11.296875 7.984375 11.296875 11.625 
C 11.296875 18.921875 26.90625 18.921875 30 18.921875 
z
" id="CMSS17-97"/>
      <path d="M 14.90625 21.296875 
C 14.90625 30.703125 21.796875 37 30.59375 37 
L 30.59375 43.578125 
C 24.203125 43.578125 18.203125 40.390625 14.59375 35.203125 
L 14.59375 43.09375 
L 7.5 43.09375 
L 7.5 0 
L 14.90625 0 
z
" id="CMSS17-114"/>
      <path d="M 39.09375 21.515625 
C 39.09375 24.84375 38.90625 31.296875 35.703125 36.640625 
C 32.203125 42.390625 26.5 44 22.203125 44 
C 11.796875 44 3 34.1875 3 21.484375 
C 3 9.09375 12.09375 -1 23.59375 -1 
C 28.09375 -1 33.59375 0.296875 38.59375 3.875 
C 38.59375 4.28125 38.40625 6.46875 38.296875 6.5625 
C 38.296875 6.765625 38 9.84375 38 10.25 
C 33.203125 6.359375 27.703125 5.078125 23.703125 5.078125 
C 17.296875 5.078125 10.40625 10.421875 10.09375 21.515625 
z
M 10.90625 27 
C 12.203125 32.5625 16.59375 37.828125 22.203125 37.828125 
C 23.703125 37.828125 30.703125 37.828125 32.5 27 
z
" id="CMSS17-101"/>
      <path d="M 25.203125 74.5 
C 19.796875 69.015625 7.40625 56.265625 7.40625 24.8125 
C 7.40625 -6.765625 19.796875 -19.421875 25.203125 -25 
L 31.296875 -25 
C 19 -12.25 15 5.578125 15 24.703125 
C 15 43.71875 18.796875 61.65625 31.296875 74.5 
z
" id="CMSS17-40"/>
      <path d="M 25.40625 66.515625 
C 25.5 66.90625 25.703125 67.5 25.703125 68 
C 25.703125 69 24.703125 69 24.5 69 
C 24.40625 69 20.796875 68.640625 19 68.390625 
C 17.296875 68.390625 15.796875 68.09375 14 68.09375 
C 11.59375 67.890625 10.90625 67.796875 10.90625 66 
C 10.90625 65 11.90625 65 12.90625 65 
C 18 65 18 64.09375 18 63.109375 
C 18 62.71875 18 62.515625 17.5 60.734375 
L 5.09375 11.421875 
C 4.796875 10.328125 4.59375 9.53125 4.59375 7.953125 
C 4.59375 2.984375 8.296875 -1 13.40625 -1 
C 16.703125 -1 18.90625 1.1875 20.5 4.28125 
C 22.203125 7.546875 23.59375 13.8125 23.59375 14.203125 
C 23.59375 14.703125 23.203125 15.109375 22.59375 15.109375 
C 21.703125 15.109375 21.59375 14.609375 21.203125 13.125 
C 19.40625 6.265625 17.59375 1 13.59375 1 
C 10.59375 1 10.59375 4.171875 10.59375 5.578125 
C 10.59375 5.96875 10.59375 8.046875 11.296875 10.84375 
z
" id="CMMI12-108"/>
      <path d="M 45.59375 27.4375 
C 45.59375 36.921875 39.40625 44 30.296875 44 
C 17.09375 44 4.09375 29.640625 4.09375 15.5625 
C 4.09375 6.09375 10.296875 -1 19.40625 -1 
C 32.703125 -1 45.59375 13.375 45.59375 27.4375 
z
M 19.5 1 
C 14.5 1 10.796875 4.984375 10.796875 11.96875 
C 10.796875 16.5625 13.203125 26.75 16 31.734375 
C 20.5 39.421875 26.09375 42.015625 30.203125 42.015625 
C 35.09375 42.015625 38.90625 38.015625 38.90625 31.03125 
C 38.90625 27.046875 36.796875 16.359375 33 10.28125 
C 28.90625 3.59375 23.40625 1 19.5 1 
z
" id="CMMI12-111"/>
      <path d="M 33.796875 12.671875 
C 33.40625 11.078125 33.203125 10.671875 31.90625 9.1875 
C 27.796875 3.890625 23.59375 2 20.5 2 
C 17.203125 2 14.09375 4.59375 14.09375 11.46875 
C 14.09375 16.765625 17.09375 27.9375 19.296875 32.4375 
C 22.203125 38.015625 26.703125 42.015625 30.90625 42.015625 
C 37.5 42.015625 38.796875 33.828125 38.796875 33.234375 
L 38.5 31.828125 
z
M 40 37.421875 
C 38.703125 40.3125 35.90625 44 30.90625 44 
C 20 44 7.59375 30.328125 7.59375 15.46875 
C 7.59375 5.09375 13.90625 0 20.296875 0 
C 25.59375 0 30.296875 4.1875 32.09375 6.1875 
L 29.90625 -2.671875 
C 28.5 -8.0625 27.90625 -10.53125 24.296875 -13.96875 
C 20.203125 -18 16.40625 -18 14.203125 -18 
C 11.203125 -18 8.703125 -17.796875 6.203125 -17.015625 
C 9.40625 -16.140625 10.203125 -13.40625 10.203125 -12.328125 
C 10.203125 -10.765625 9 -9.1875 6.796875 -9.1875 
C 4.40625 -9.1875 1.796875 -11.15625 1.796875 -14.40625 
C 1.796875 -18.4375 5.90625 -20 14.40625 -20 
C 27.296875 -20 34 -11.765625 35.296875 -6.40625 
L 46.40625 38.046875 
C 46.703125 39.234375 46.703125 39.4375 46.703125 39.625 
C 46.703125 41.015625 45.59375 42.109375 44.09375 42.109375 
C 41.703125 42.109375 40.296875 40.109375 40 37.421875 
z
" id="CMMI12-103"/>
      <path d="M 26.59375 63.40625 
C 26.59375 65.5 26.5 65.5 25.09375 65.5 
C 21.203125 61.1875 15.296875 59.796875 9.703125 59.796875 
C 9.40625 59.796875 8.90625 59.796875 8.796875 59.5 
C 8.703125 59.296875 8.703125 59.09375 8.703125 57 
C 11.796875 57 17 57.59375 21 59.984375 
L 21 7.203125 
C 21 3.6875 20.796875 2.5 12.203125 2.5 
L 9.203125 2.5 
L 9.203125 0 
C 14 0 19 0 23.796875 0 
C 28.59375 0 33.59375 0 38.40625 0 
L 38.40625 2.5 
L 35.40625 2.5 
C 26.796875 2.5 26.59375 3.59375 26.59375 7.15625 
z
" id="CMR17-49"/>
      <path d="M 30.59375 -24.390625 
C 30.59375 -24.296875 30.59375 -24.09375 30.296875 -23.796875 
C 25.703125 -19.125 13.40625 -6.359375 13.40625 24.703125 
C 13.40625 55.765625 25.5 68.421875 30.40625 73.390625 
C 30.40625 73.5 30.59375 73.703125 30.59375 74 
C 30.59375 74.296875 30.296875 74.5 29.90625 74.5 
C 28.796875 74.5 20.296875 67.125 15.40625 56.15625 
C 10.40625 45.109375 9 34.359375 9 24.8125 
C 9 17.625 9.703125 5.484375 15.703125 -7.359375 
C 20.5 -17.734375 28.703125 -25 29.90625 -25 
C 30.40625 -25 30.59375 -24.796875 30.59375 -24.390625 
z
" id="CMR17-40"/>
      <path d="M 20.59375 29.234375 
C 20.796875 29.84375 23.296875 34.828125 27 38.015625 
C 29.59375 40.40625 33 42.015625 36.90625 42.015625 
C 40.90625 42.015625 42.296875 39.015625 42.296875 35.03125 
C 42.296875 29.34375 38.203125 17.96875 36.203125 12.578125 
C 35.296875 10.171875 34.796875 8.875 34.796875 7.078125 
C 34.796875 2.59375 37.90625 -1 42.703125 -1 
C 52 -1 55.5 13.671875 55.5 14.265625 
C 55.5 14.765625 55.09375 15.171875 54.5 15.171875 
C 53.59375 15.171875 53.5 14.875 53 13.171875 
C 50.703125 4.984375 46.90625 1 43 1 
C 42 1 40.40625 1 40.40625 4.203125 
C 40.40625 6.703125 41.5 9.703125 42.09375 11.09375 
C 44.09375 16.609375 48.296875 27.8125 48.296875 33.515625 
C 48.296875 39.5 44.796875 44 37.203125 44 
C 28.296875 44 23.59375 37.734375 21.796875 35.234375 
C 21.5 40.90625 17.40625 44 13 44 
C 9.796875 44 7.59375 42.109375 5.90625 38.71875 
C 4.09375 35.125 2.703125 29.140625 2.703125 28.734375 
C 2.703125 28.34375 3.09375 27.84375 3.796875 27.84375 
C 4.59375 27.84375 4.703125 27.9375 5.296875 30.234375 
C 6.90625 36.328125 8.703125 42.015625 12.703125 42.015625 
C 15 42.015625 15.796875 40.40625 15.796875 37.421875 
C 15.796875 35.21875 14.796875 31.328125 14.09375 28.234375 
L 11.296875 17.46875 
C 10.90625 15.5625 9.796875 11.078125 9.296875 9.28125 
C 8.59375 6.6875 7.5 2 7.5 1.5 
C 7.5 0.09375 8.59375 -1 10.09375 -1 
C 11.296875 -1 12.703125 -0.40625 13.5 1.09375 
C 13.703125 1.59375 14.59375 5.09375 15.09375 7.078125 
L 17.296875 16.0625 
z
" id="CMMI12-110"/>
      <path d="M 20.59375 29.234375 
C 20.796875 29.84375 23.296875 34.828125 27 38.015625 
C 29.59375 40.40625 33 42.015625 36.90625 42.015625 
C 40.90625 42.015625 42.296875 39.015625 42.296875 35.03125 
C 42.296875 34.421875 42.296875 32.4375 41.09375 27.734375 
L 38.59375 17.46875 
C 37.796875 14.46875 35.90625 7.078125 35.703125 5.984375 
C 35.296875 4.484375 34.703125 1.890625 34.703125 1.5 
C 34.703125 0.09375 35.796875 -1 37.296875 -1 
C 40.296875 -1 40.796875 1.296875 41.703125 4.890625 
L 47.703125 28.734375 
C 47.90625 29.53125 53.09375 42.015625 64.09375 42.015625 
C 68.09375 42.015625 69.5 39.015625 69.5 35.03125 
C 69.5 29.4375 65.59375 18.5625 63.40625 12.578125 
C 62.5 10.171875 62 8.875 62 7.078125 
C 62 2.59375 65.09375 -1 69.90625 -1 
C 79.203125 -1 82.703125 13.671875 82.703125 14.265625 
C 82.703125 14.765625 82.296875 15.171875 81.703125 15.171875 
C 80.796875 15.171875 80.703125 14.875 80.203125 13.171875 
C 77.90625 5.1875 74.203125 1 70.203125 1 
C 69.203125 1 67.59375 1 67.59375 4.203125 
C 67.59375 6.8125 68.796875 10 69.203125 11.09375 
C 71 15.90625 75.5 27.703125 75.5 33.515625 
C 75.5 39.5 72 44 64.40625 44 
C 57.703125 44 52.296875 40.21875 48.296875 34.328125 
C 48 39.71875 44.703125 44 37.203125 44 
C 28.296875 44 23.59375 37.734375 21.796875 35.234375 
C 21.5 40.90625 17.40625 44 13 44 
C 10.09375 44 7.796875 42.609375 5.90625 38.8125 
C 4.09375 35.21875 2.703125 29.140625 2.703125 28.734375 
C 2.703125 28.34375 3.09375 27.84375 3.796875 27.84375 
C 4.59375 27.84375 4.703125 27.9375 5.296875 30.234375 
C 6.796875 36.125 8.703125 42.015625 12.703125 42.015625 
C 15 42.015625 15.796875 40.40625 15.796875 37.421875 
C 15.796875 35.21875 14.796875 31.328125 14.09375 28.234375 
L 11.296875 17.46875 
C 10.90625 15.5625 9.796875 11.078125 9.296875 9.28125 
C 8.59375 6.6875 7.5 2 7.5 1.5 
C 7.5 0.09375 8.59375 -1 10.09375 -1 
C 11.296875 -1 12.703125 -0.40625 13.5 1.09375 
C 13.703125 1.59375 14.59375 5.09375 15.09375 7.078125 
L 17.296875 16.0625 
z
" id="CMMI12-109"/>
      <path d="M 26.296875 24.703125 
C 26.296875 31.875 25.59375 44.015625 19.59375 56.859375 
C 14.796875 67.234375 6.59375 74.5 5.40625 74.5 
C 5.09375 74.5 4.703125 74.390625 4.703125 73.890625 
C 4.703125 73.703125 4.796875 73.59375 4.90625 73.390625 
C 9.703125 68.40625 21.90625 55.75 21.90625 24.75 
C 21.90625 -6.359375 9.796875 -19.015625 4.90625 -24.015625 
C 4.796875 -24.203125 4.703125 -24.3125 4.703125 -24.5 
C 4.703125 -25 5.09375 -25 5.40625 -25 
C 6.5 -25 15 -17.625 19.90625 -6.65625 
C 24.90625 4.390625 26.296875 15.140625 26.296875 24.703125 
z
" id="CMR17-41"/>
      <path d="M 11.296875 -25 
C 16.703125 -19.515625 29.09375 -6.765625 29.09375 24.703125 
C 29.09375 56.265625 16.703125 68.921875 11.296875 74.5 
L 5.203125 74.5 
C 17.5 61.75 21.5 43.921875 21.5 24.8125 
C 21.5 5.78125 17.703125 -12.15625 5.203125 -25 
z
" id="CMSS17-41"/>
     </defs>
     <g transform="translate(185.116205 331.638498)scale(0.1 -0.1)">
      <use transform="translate(0 14.943915)scale(0.996264)" xlink:href="#CMSS17-108"/>
      <use transform="translate(22.180723 14.943915)scale(0.996264)" xlink:href="#CMSS17-111"/>
      <use transform="translate(69.024347 14.943915)scale(0.996264)" xlink:href="#CMSS17-103"/>
      <use transform="translate(147.097083 14.943915)scale(0.996264)" xlink:href="#CMSS17-115"/>
      <use transform="translate(183.010625 14.943915)scale(0.996264)" xlink:href="#CMSS17-121"/>
      <use transform="translate(226.010767 14.943915)scale(0.996264)" xlink:href="#CMSS17-110"/>
      <use transform="translate(274.21571 14.943915)scale(0.996264)" xlink:href="#CMSS17-46"/>
      <use transform="translate(341.878721 14.943915)scale(0.996264)" xlink:href="#CMSS17-97"/>
      <use transform="translate(384.198188 14.943915)scale(0.996264)" xlink:href="#CMSS17-114"/>
      <use transform="translate(416.107961 14.943915)scale(0.996264)" xlink:href="#CMSS17-101"/>
      <use transform="translate(457.746783 14.943915)scale(0.996264)" xlink:href="#CMSS17-97"/>
      <use transform="translate(533.897816 14.943915)scale(0.996264)" xlink:href="#CMSS17-40"/>
      <use transform="translate(570.33173 14.943915)scale(0.996264)" xlink:href="#CMMI12-108"/>
      <use transform="translate(601.580134 14.943915)scale(0.996264)" xlink:href="#CMMI12-111"/>
      <use transform="translate(648.475444 14.943915)scale(0.996264)" xlink:href="#CMMI12-103"/>
      <use transform="translate(695.18634 0)scale(0.697382)" xlink:href="#CMR17-49"/>
      <use transform="translate(727.169522 0)scale(0.697382)" xlink:href="#CMR17-48"/>
      <use transform="translate(759.650836 14.943915)scale(0.996264)" xlink:href="#CMR17-40"/>
      <use transform="translate(794.931604 14.943915)scale(0.996264)" xlink:href="#CMMI12-110"/>
      <use transform="translate(853.161651 14.943915)scale(0.996264)" xlink:href="#CMMI12-109"/>
      <use transform="translate(938.488876 51.097553)scale(0.697382)" xlink:href="#CMR17-50"/>
      <use transform="translate(970.97019 14.943915)scale(0.996264)" xlink:href="#CMR17-41"/>
      <use transform="translate(1006.250958 14.943915)scale(0.996264)" xlink:href="#CMSS17-41"/>
     </g>
    </g>
   </g>
   <g id="matplotlib.axis_2">
    <g id="ytick_1">
     <g id="line2d_10">
      <defs>
       <path d="M 0 0 
L -3.5 0 
" id="mf98ebae9d0" style="stroke:#000000;stroke-width:0.8;"/>
      </defs>
      <g>
       <use style="stroke:#000000;stroke-width:0.8;" x="41.842671" xlink:href="#mf98ebae9d0" y="303.119721"/>
      </g>
     </g>
     <g id="text_11">
      <!-- $0$ -->
      <g transform="translate(29.861335 306.57897)scale(0.1 -0.1)">
       <use transform="scale(0.996264)" xlink:href="#CMR17-48"/>
      </g>
     </g>
    </g>
    <g id="ytick_2">
     <g id="line2d_11">
      <g>
       <use style="stroke:#000000;stroke-width:0.8;" x="41.842671" xlink:href="#mf98ebae9d0" y="247.850019"/>
      </g>
     </g>
     <g id="text_12">
      <!-- $10$ -->
      <g transform="translate(24.88 251.309268)scale(0.1 -0.1)">
       <use transform="scale(0.996264)" xlink:href="#CMR17-49"/>
       <use transform="translate(45.690477 0)scale(0.996264)" xlink:href="#CMR17-48"/>
      </g>
     </g>
    </g>
    <g id="ytick_3">
     <g id="line2d_12">
      <g>
       <use style="stroke:#000000;stroke-width:0.8;" x="41.842671" xlink:href="#mf98ebae9d0" y="192.580316"/>
      </g>
     </g>
     <g id="text_13">
      <!-- $20$ -->
      <g transform="translate(24.88 196.039565)scale(0.1 -0.1)">
       <use transform="scale(0.996264)" xlink:href="#CMR17-50"/>
       <use transform="translate(45.690477 0)scale(0.996264)" xlink:href="#CMR17-48"/>
      </g>
     </g>
    </g>
    <g id="ytick_4">
     <g id="line2d_13">
      <g>
       <use style="stroke:#000000;stroke-width:0.8;" x="41.842671" xlink:href="#mf98ebae9d0" y="137.310613"/>
      </g>
     </g>
     <g id="text_14">
      <!-- $30$ -->
      <g transform="translate(24.88 140.769862)scale(0.1 -0.1)">
       <use transform="scale(0.996264)" xlink:href="#CMR17-51"/>
       <use transform="translate(45.690477 0)scale(0.996264)" xlink:href="#CMR17-48"/>
      </g>
     </g>
    </g>
    <g id="ytick_5">
     <g id="line2d_14">
      <g>
       <use style="stroke:#000000;stroke-width:0.8;" x="41.842671" xlink:href="#mf98ebae9d0" y="82.040911"/>
      </g>
     </g>
     <g id="text_15">
      <!-- $40$ -->
      <g transform="translate(24.88 85.50016)scale(0.1 -0.1)">
       <use transform="scale(0.996264)" xlink:href="#CMR17-52"/>
       <use transform="translate(45.690477 0)scale(0.996264)" xlink:href="#CMR17-48"/>
      </g>
     </g>
    </g>
    <g id="ytick_6">
     <g id="line2d_15">
      <g>
       <use style="stroke:#000000;stroke-width:0.8;" x="41.842671" xlink:href="#mf98ebae9d0" y="26.771208"/>
      </g>
     </g>
     <g id="text_16">
      <!-- $50$ -->
      <g transform="translate(24.88 30.230457)scale(0.1 -0.1)">
       <use transform="scale(0.996264)" xlink:href="#CMR17-53"/>
       <use transform="translate(45.690477 0)scale(0.996264)" xlink:href="#CMR17-48"/>
      </g>
     </g>
    </g>
    <g id="text_17">
     <!-- frequency -->
     <defs>
      <path d="M 16.796875 37 
L 26.90625 37 
L 26.90625 42.765625 
L 16.59375 42.765625 
L 16.59375 55.609375 
C 16.59375 62.71875 22 63.9375 25.09375 63.9375 
C 26.09375 63.9375 28.90625 63.9375 32.5 62.640625 
L 32.5 69.203125 
C 30.203125 69.703125 27.40625 70 25.203125 70 
C 15.90625 70 9.40625 62.390625 9.40625 52.484375 
L 9.40625 42.765625 
L 2.5 42.765625 
L 2.5 37 
L 9.40625 37 
L 9.40625 0 
L 16.796875 0 
z
" id="CMSS17-102"/>
      <path d="M 40.796875 44 
L 33.40625 44 
L 33.40625 37.9375 
C 33 38.4375 28.40625 44 20.59375 44 
C 11.5 44 3.296875 34.8125 3.296875 21.859375 
C 3.296875 9.890625 10.203125 -0.078125 19.203125 -0.078125 
C 23.40625 -0.078125 28.703125 1.421875 33.203125 5.703125 
L 33.203125 -19 
L 40.796875 -19 
z
M 33.40625 14.28125 
C 33.40625 13 33.40625 11.21875 30.296875 8.65625 
C 29.5 7.96875 27.296875 6 23.5 6 
C 16.40625 6 10.90625 13.28125 10.90625 21.859375 
C 10.90625 31.421875 17.59375 37.734375 24.40625 37.734375 
C 30.09375 37.734375 33.40625 32.203125 33.40625 28.078125 
z
" id="CMSS17-113"/>
      <path d="M 40.90625 42.796875 
L 33.296875 42.796875 
L 33.296875 15.1875 
C 33.296875 7.78125 27.90625 4.78125 22.203125 4.78125 
C 15.59375 4.78125 15 6.984375 15 11.078125 
L 15 42.796875 
L 7.40625 42.796875 
L 7.40625 10.59375 
C 7.40625 2.796875 10.09375 -1 17 -1 
C 20.40625 -1 28.09375 -0.203125 33.5 4.78125 
L 33.5 0 
L 40.90625 0 
z
" id="CMSS17-117"/>
      <path d="M 38.5 39.703125 
C 38.5 40.390625 33.90625 42.40625 32.703125 42.796875 
C 29.40625 44 25.203125 44 24.09375 44 
C 11.09375 44 3.296875 32.703125 3.296875 21.296875 
C 3.296875 9.296875 12 -1 23.703125 -1 
C 30.40625 -1 35.203125 1.1875 39.09375 3.78125 
L 38.5 10.375 
C 34.203125 7.078125 29.203125 5.265625 23.796875 5.265625 
C 16 5.265625 10.90625 12.09375 10.90625 21.390625 
C 10.90625 28.609375 14.203125 37.71875 24.203125 37.71875 
C 29.703125 37.71875 32.796875 36.609375 37.40625 33.515625 
z
" id="CMSS17-99"/>
     </defs>
     <g transform="translate(18.942822 184.829267)rotate(-90)scale(0.1 -0.1)">
      <use transform="scale(0.996264)" xlink:href="#CMSS17-102"/>
      <use transform="translate(28.626659 0)scale(0.996264)" xlink:href="#CMSS17-114"/>
      <use transform="translate(60.536431 0)scale(0.996264)" xlink:href="#CMSS17-101"/>
      <use transform="translate(102.175253 0)scale(0.996264)" xlink:href="#CMSS17-113"/>
      <use transform="translate(150.380197 0)scale(0.996264)" xlink:href="#CMSS17-117"/>
      <use transform="translate(198.58514 0)scale(0.996264)" xlink:href="#CMSS17-101"/>
      <use transform="translate(240.223962 0)scale(0.996264)" xlink:href="#CMSS17-110"/>
      <use transform="translate(288.428905 0)scale(0.996264)" xlink:href="#CMSS17-99"/>
      <use transform="translate(330.067727 0)scale(0.996264)" xlink:href="#CMSS17-121"/>
     </g>
    </g>
   </g>
   <g id="line2d_16">
    <path clip-path="url(#pb9b42d6336)" d="M 104.785512 301.429094 
L 108.040998 301.073345 
L 111.296485 300.652372 
L 114.551972 300.15637 
L 117.807458 299.574502 
L 121.062945 298.89488 
L 124.318431 298.104557 
L 127.573918 297.18955 
L 130.829405 296.134877 
L 134.084891 294.924633 
L 137.340378 293.542095 
L 140.595865 291.969857 
L 143.851351 290.190015 
L 147.106838 288.184381 
L 150.362324 285.934743 
L 153.617811 283.423168 
L 156.873298 280.632341 
L 160.128784 277.545943 
L 163.384271 274.149065 
L 166.639757 270.42865 
L 169.895244 266.37395 
L 173.150731 261.977004 
L 176.406217 257.233111 
L 179.661704 252.141302 
L 182.917191 246.704778 
L 186.172677 240.931329 
L 189.428164 234.833685 
L 192.68365 228.429823 
L 195.939137 221.743181 
L 199.194624 214.802789 
L 202.45011 207.643303 
L 205.705597 200.304917 
L 208.961083 192.833164 
L 212.21657 185.27859 
L 215.472057 177.696308 
L 218.727543 170.145418 
L 221.98303 162.688322 
L 225.238516 155.389919 
L 228.494003 148.316711 
L 231.74949 141.535823 
L 235.004976 135.113969 
L 238.260463 129.116368 
L 241.51595 123.605659 
L 244.771436 118.640811 
L 248.026923 114.276079 
L 251.282409 110.56002 
L 254.537896 107.534592 
L 257.793383 105.234367 
L 261.048869 103.685874 
L 264.304356 102.90709 
L 267.559842 102.90709 
L 270.815329 103.685874 
L 274.070816 105.234367 
L 277.326302 107.534592 
L 280.581789 110.56002 
L 283.837276 114.276079 
L 287.092762 118.640811 
L 290.348249 123.605659 
L 293.603735 129.116368 
L 296.859222 135.113969 
L 300.114709 141.535823 
L 303.370195 148.316711 
L 306.625682 155.389919 
L 309.881168 162.688322 
L 313.136655 170.145418 
L 316.392142 177.696308 
L 319.647628 185.27859 
L 322.903115 192.833164 
L 326.158602 200.304917 
L 329.414088 207.643303 
L 332.669575 214.802789 
L 335.925061 221.743181 
L 339.180548 228.429823 
L 342.436035 234.833685 
L 345.691521 240.931329 
L 348.947008 246.704778 
L 352.202494 252.141302 
L 355.457981 257.233111 
L 358.713468 261.977004 
L 361.968954 266.37395 
L 365.224441 270.42865 
L 368.479928 274.149065 
L 371.735414 277.545943 
L 374.990901 280.632341 
L 378.246387 283.423168 
L 381.501874 285.934743 
L 384.757361 288.184381 
L 388.012847 290.190015 
L 391.268334 291.969857 
L 394.52382 293.542095 
L 397.779307 294.924633 
L 401.034794 296.134877 
L 404.29028 297.18955 
L 407.545767 298.104557 
L 410.801253 298.89488 
L 414.05674 299.574502 
L 417.312227 300.15637 
L 420.567713 300.652372 
L 423.8232 301.073345 
L 427.078687 301.429094 
" style="fill:none;stroke:#000000;stroke-dasharray:3.7,1.6;stroke-dashoffset:0;"/>
   </g>
   <g id="line2d_17">
    <path clip-path="url(#pb9b42d6336)" d="M 180.157788 303.119721 
L 180.157788 26.771208 
" style="fill:none;stroke:#ffa500;stroke-dasharray:1.5,2.475;stroke-dashoffset:0;stroke-width:1.5;"/>
   </g>
   <g id="line2d_18">
    <path clip-path="url(#pb9b42d6336)" d="M 351.706411 303.119721 
L 351.706411 26.771208 
" style="fill:none;stroke:#ffa500;stroke-dasharray:1.5,2.475;stroke-dashoffset:0;stroke-width:1.5;"/>
   </g>
   <g id="patch_15">
    <path d="M 41.842671 303.119721 
L 41.842671 26.771208 
" style="fill:none;stroke:#000000;stroke-linecap:square;stroke-linejoin:miter;stroke-width:0.8;"/>
   </g>
   <g id="patch_16">
    <path d="M 441.144293 303.119721 
L 441.144293 26.771208 
" style="fill:none;stroke:#000000;stroke-linecap:square;stroke-linejoin:miter;stroke-width:0.8;"/>
   </g>
   <g id="patch_17">
    <path d="M 41.842671 303.119721 
L 441.144293 303.119721 
" style="fill:none;stroke:#000000;stroke-linecap:square;stroke-linejoin:miter;stroke-width:0.8;"/>
   </g>
   <g id="patch_18">
    <path d="M 41.842671 26.771208 
L 441.144293 26.771208 
" style="fill:none;stroke:#000000;stroke-linecap:square;stroke-linejoin:miter;stroke-width:0.8;"/>
   </g>
   <g id="text_18">
    <!-- Histogram of synaptic areas (cho to basin) -->
    <defs>
     <path d="M 57.40625 69 
L 49 69 
L 49 39.078125 
L 17.203125 39.078125 
L 17.203125 69 
L 8.796875 69 
L 8.796875 0 
L 17.203125 0 
L 17.203125 33 
L 49 33 
L 49 0 
L 57.40625 0 
z
" id="CMSS17-72"/>
     <path d="M 15.296875 65.359375 
L 6.90625 65.359375 
L 6.90625 57 
L 15.296875 57 
z
M 14.796875 42.796875 
L 7.40625 42.796875 
L 7.40625 0 
L 14.796875 0 
z
" id="CMSS17-105"/>
     <path d="M 16.703125 37 
L 29.703125 37 
L 29.703125 42.765625 
L 16.703125 42.765625 
L 16.703125 55 
L 9.59375 55 
L 9.59375 42.765625 
L 1.703125 42.765625 
L 1.703125 37 
L 9.40625 37 
L 9.40625 11.703125 
C 9.40625 6 10.703125 -1 17.296875 -1 
C 22.296875 -1 26.90625 0.390625 31.296875 2.6875 
L 29.703125 8.5625 
C 27.296875 6.46875 24.40625 5.265625 21.296875 5.265625 
C 16.90625 5.265625 16.703125 10.875 16.703125 13.375 
z
" id="CMSS17-116"/>
     <path d="M 67 29.328125 
C 67 36.0625 65.296875 44 54.09375 44 
C 46.59375 44 42.09375 39.3125 40.09375 36.421875 
C 38.296875 41.71875 34.09375 44 28.09375 44 
C 21.296875 44 17 40.125 14.703125 37.328125 
L 14.703125 43.09375 
L 7.40625 43.09375 
L 7.40625 0 
L 15 0 
L 15 24.359375 
C 15 30.296875 17.203125 37.9375 24.296875 37.9375 
C 33.40625 37.9375 33.40625 31.5 33.40625 28.578125 
L 33.40625 0 
L 41 0 
L 41 24.359375 
C 41 30.296875 43.203125 37.9375 50.296875 37.9375 
C 59.40625 37.9375 59.40625 31.5 59.40625 28.578125 
L 59.40625 0 
L 67 0 
z
" id="CMSS17-109"/>
     <path d="M 15.09375 5.203125 
C 18.40625 2.015625 22.90625 -0.078125 27.703125 -0.078125 
C 37 -0.078125 45 9.421875 45 22.0625 
C 45 33.734375 39 44 30.40625 44 
C 25.40625 44 19.40625 42.21875 14.90625 38.625 
L 14.90625 43.203125 
L 7.5 43.203125 
L 7.5 -19 
L 15.09375 -19 
z
M 15.09375 32.8125 
C 15.90625 34 19.296875 37.734375 24.796875 37.734375 
C 31.796875 37.734375 37.40625 30.625 37.40625 22.0625 
C 37.40625 12.296875 30.59375 6 23.90625 6 
C 21.90625 6 19.796875 6.484375 17.796875 8.171875 
C 15.09375 10.53125 15.09375 12 15.09375 13.390625 
z
" id="CMSS17-112"/>
     <path d="M 40.90625 29.546875 
C 40.90625 35.8125 39.40625 44.0625 28.09375 44.0625 
C 21.796875 44.0625 17.703125 40.984375 14.796875 37.609375 
L 14.796875 69.5 
L 7.40625 69.5 
L 7.40625 0.5 
L 15 0.5 
L 15 24.578125 
C 15 30.828125 17.40625 38 24.203125 38 
C 33 38 33.296875 32.125 33.296875 28.734375 
L 33.296875 0.5 
L 40.90625 0.5 
z
" id="CMSS17-104"/>
     <path d="M 14.90625 69 
L 7.5 69 
L 7.5 -0.203125 
L 15.09375 -0.203125 
L 15.09375 4.28125 
C 18.90625 0.59375 23.5 -1 27.59375 -1 
C 37.203125 -1 45 8.578125 45 21.125 
C 45 32.59375 39 43.0625 30.09375 43.0625 
C 23.796875 43.0625 18.203125 40.484375 14.90625 37.796875 
z
M 15.09375 31.96875 
C 17.296875 34.71875 20.40625 37 24.796875 37 
C 30.703125 37 37.40625 32.765625 37.40625 21.125 
C 37.40625 8.71875 29.40625 5.078125 23.90625 5.078125 
C 21.90625 5.078125 19.796875 5.5625 17.796875 7.25 
C 15.09375 9.609375 15.09375 11.078125 15.09375 12.453125 
z
" id="CMSS17-98"/>
    </defs>
    <g transform="translate(137.317978 20.771208)scale(0.12 -0.12)">
     <use transform="scale(0.996264)" xlink:href="#CMSS17-72"/>
     <use transform="translate(66.061519 0)scale(0.996264)" xlink:href="#CMSS17-105"/>
     <use transform="translate(88.242242 0)scale(0.996264)" xlink:href="#CMSS17-115"/>
     <use transform="translate(124.155784 0)scale(0.996264)" xlink:href="#CMSS17-116"/>
     <use transform="translate(157.987351 0)scale(0.996264)" xlink:href="#CMSS17-111"/>
     <use transform="translate(204.830974 0)scale(0.996264)" xlink:href="#CMSS17-103"/>
     <use transform="translate(251.674598 0)scale(0.996264)" xlink:href="#CMSS17-114"/>
     <use transform="translate(283.584371 0)scale(0.996264)" xlink:href="#CMSS17-97"/>
     <use transform="translate(328.506291 0)scale(0.996264)" xlink:href="#CMSS17-109"/>
     <use transform="translate(433.964658 0)scale(0.996264)" xlink:href="#CMSS17-111"/>
     <use transform="translate(480.808282 0)scale(0.996264)" xlink:href="#CMSS17-102"/>
     <use transform="translate(540.664053 0)scale(0.996264)" xlink:href="#CMSS17-115"/>
     <use transform="translate(576.577595 0)scale(0.996264)" xlink:href="#CMSS17-121"/>
     <use transform="translate(619.577737 0)scale(0.996264)" xlink:href="#CMSS17-110"/>
     <use transform="translate(667.78268 0)scale(0.996264)" xlink:href="#CMSS17-97"/>
     <use transform="translate(712.704601 0)scale(0.996264)" xlink:href="#CMSS17-112"/>
     <use transform="translate(760.909544 0)scale(0.996264)" xlink:href="#CMSS17-116"/>
     <use transform="translate(794.741111 0)scale(0.996264)" xlink:href="#CMSS17-105"/>
     <use transform="translate(816.921834 0)scale(0.996264)" xlink:href="#CMSS17-99"/>
     <use transform="translate(889.789768 0)scale(0.996264)" xlink:href="#CMSS17-97"/>
     <use transform="translate(932.109235 0)scale(0.996264)" xlink:href="#CMSS17-114"/>
     <use transform="translate(964.019008 0)scale(0.996264)" xlink:href="#CMSS17-101"/>
     <use transform="translate(1005.65783 0)scale(0.996264)" xlink:href="#CMSS17-97"/>
     <use transform="translate(1050.57975 0)scale(0.996264)" xlink:href="#CMSS17-115"/>
     <use transform="translate(1117.722405 0)scale(0.996264)" xlink:href="#CMSS17-40"/>
     <use transform="translate(1154.156319 0)scale(0.996264)" xlink:href="#CMSS17-99"/>
     <use transform="translate(1195.795141 0)scale(0.996264)" xlink:href="#CMSS17-104"/>
     <use transform="translate(1244.000085 0)scale(0.996264)" xlink:href="#CMSS17-111"/>
     <use transform="translate(1322.072821 0)scale(0.996264)" xlink:href="#CMSS17-116"/>
     <use transform="translate(1355.904387 0)scale(0.996264)" xlink:href="#CMSS17-111"/>
     <use transform="translate(1433.977124 0)scale(0.996264)" xlink:href="#CMSS17-98"/>
     <use transform="translate(1482.182067 0)scale(0.996264)" xlink:href="#CMSS17-97"/>
     <use transform="translate(1527.103987 0)scale(0.996264)" xlink:href="#CMSS17-115"/>
     <use transform="translate(1563.017529 0)scale(0.996264)" xlink:href="#CMSS17-105"/>
     <use transform="translate(1585.198253 0)scale(0.996264)" xlink:href="#CMSS17-110"/>
     <use transform="translate(1633.403196 0)scale(0.996264)" xlink:href="#CMSS17-41"/>
    </g>
   </g>
   <g id="legend_1">
    <g id="patch_19">
     <path d="M 48.842671 84.537221 
L 174.574611 84.537221 
Q 176.574611 84.537221 176.574611 82.537221 
L 176.574611 33.771208 
Q 176.574611 31.771208 174.574611 31.771208 
L 48.842671 31.771208 
Q 46.842671 31.771208 46.842671 33.771208 
L 46.842671 82.537221 
Q 46.842671 84.537221 48.842671 84.537221 
z
" style="fill:#ffffff;opacity:0.8;stroke:#cccccc;stroke-linejoin:miter;"/>
    </g>
    <g id="line2d_19">
     <path d="M 50.842671 61.162864 
L 70.842671 61.162864 
" style="fill:none;stroke:#000000;stroke-dasharray:3.7,1.6;stroke-dashoffset:0;"/>
    </g>
    <g id="line2d_20"/>
    <g id="text_19">
     <!-- normal distribution \newline $\mu = 4.12$ \newline $\sigma^2 = 0.07$ -->
     <defs>
      <path d="M 40.796875 69 
L 33.40625 69 
L 33.40625 38.09375 
C 30.296875 40.671875 25.203125 43.0625 19.59375 43.0625 
C 10.5 43.0625 3.296875 33.296875 3.296875 21.046875 
C 3.296875 8.78125 10.40625 -1 19.296875 -1 
C 26.203125 -1 30.796875 2.6875 33.203125 4.78125 
L 33.203125 -0.203125 
L 40.796875 -0.203125 
z
M 33.203125 13.0625 
C 33.203125 11.671875 33.203125 10.203125 30.09375 7.53125 
C 28.09375 5.859375 25.703125 5.078125 23.40625 5.078125 
C 18 5.078125 10.90625 9 10.90625 20.9375 
C 10.90625 33.34375 18.90625 37 24.40625 37 
C 28.09375 37 31.09375 35.21875 33.203125 32.265625 
z
" id="CMSS17-100"/>
      <path d="M 14.40625 2.1875 
C 16.90625 -0.09375 20.59375 -1 24 -1 
C 30.40625 -1 34.796875 3.25 37.09375 6.328125 
C 38.09375 1.078125 42.296875 -1 45.796875 -1 
C 48.796875 -1 51.203125 0.78125 53 4.328125 
C 54.59375 7.703125 56 13.734375 56 14.109375 
C 56 14.609375 55.59375 15 55 15 
C 54.09375 15 54 14.5 53.59375 13.03125 
C 52.09375 7.203125 50.203125 1 46.09375 1 
C 43.203125 1 43 3.578125 43 5.59375 
C 43 7.875 43.90625 11.484375 44.59375 14.46875 
L 47.40625 25.234375 
C 47.796875 27.140625 48.90625 31.609375 49.40625 33.421875 
C 50 35.8125 51.09375 40.109375 51.09375 40.5 
C 51.09375 42 49.90625 43 48.40625 43 
C 47.5 43 45.40625 42.59375 44.59375 39.609375 
L 37.59375 11.875 
C 37.09375 9.875 37.09375 9.671875 35.796875 8.078125 
C 34.59375 6.390625 30.703125 1 24.40625 1 
C 18.796875 1 17 5.09375 17 9.765625 
C 17 12.671875 17.90625 16.15625 18.296875 17.859375 
L 22.796875 35.828125 
C 23.296875 37.71875 24.09375 40.90625 24.09375 41.515625 
C 24.09375 43.109375 22.796875 44 21.5 44 
C 20.59375 44 18.40625 43.703125 17.59375 40.5 
L 3.09375 -17.296875 
C 3 -17.796875 2.796875 -18.390625 2.796875 -19 
C 2.796875 -20.5 4 -21.5 5.5 -21.5 
C 8.40625 -21.5 9 -19.1875 9.703125 -16.40625 
z
" id="CMMI12-22"/>
      <path d="M 64.296875 31.515625 
C 65.796875 31.515625 67.296875 31.515625 67.296875 33.203125 
C 67.296875 35 65.59375 35 63.90625 35 
L 8 35 
C 6.296875 35 4.59375 35 4.59375 33.203125 
C 4.59375 31.515625 6.09375 31.515625 7.59375 31.515625 
z
M 63.90625 14 
C 65.59375 14 67.296875 14 67.296875 15.796875 
C 67.296875 17.484375 65.796875 17.484375 64.296875 17.484375 
L 7.59375 17.484375 
C 6.09375 17.484375 4.59375 17.484375 4.59375 15.796875 
C 4.59375 14 6.296875 14 8 14 
z
" id="CMR17-61"/>
      <path d="M 50.796875 37.625 
C 52.09375 37.625 55.40625 37.625 55.40625 40.8125 
C 55.40625 43 53.5 43 51.703125 43 
L 29.59375 43 
C 14.59375 43 3.796875 26.34375 3.796875 14.5625 
C 3.796875 6.09375 9.296875 -1 18.296875 -1 
C 30.09375 -1 43 11.671875 43 26.640625 
C 43 30.53125 42.09375 34.3125 39.703125 37.625 
z
M 18.40625 1 
C 13.296875 1 9.59375 4.890625 9.59375 11.78125 
C 9.59375 17.765625 13.203125 37.625 27.90625 37.625 
C 32.203125 37.625 37 35.53125 37 27.828125 
C 37 24.34375 35.40625 15.953125 31.90625 10.1875 
C 28.296875 4.296875 22.90625 1 18.40625 1 
z
" id="CMMI12-27"/>
     </defs>
     <g transform="translate(78.842671 64.662864)scale(0.1 -0.1)">
      <use transform="translate(14.94396 166.692211)scale(0.996264)" xlink:href="#CMSS17-110"/>
      <use transform="translate(63.148903 166.692211)scale(0.996264)" xlink:href="#CMSS17-111"/>
      <use transform="translate(107.390073 166.692211)scale(0.996264)" xlink:href="#CMSS17-114"/>
      <use transform="translate(139.299845 166.692211)scale(0.996264)" xlink:href="#CMSS17-109"/>
      <use transform="translate(213.5291 166.692211)scale(0.996264)" xlink:href="#CMSS17-97"/>
      <use transform="translate(258.45102 166.692211)scale(0.996264)" xlink:href="#CMSS17-108"/>
      <use transform="translate(311.860856 166.692211)scale(0.996264)" xlink:href="#CMSS17-100"/>
      <use transform="translate(360.065799 166.692211)scale(0.996264)" xlink:href="#CMSS17-105"/>
      <use transform="translate(382.246522 166.692211)scale(0.996264)" xlink:href="#CMSS17-115"/>
      <use transform="translate(418.160064 166.692211)scale(0.996264)" xlink:href="#CMSS17-116"/>
      <use transform="translate(451.991631 166.692211)scale(0.996264)" xlink:href="#CMSS17-114"/>
      <use transform="translate(483.901404 166.692211)scale(0.996264)" xlink:href="#CMSS17-105"/>
      <use transform="translate(506.082127 166.692211)scale(0.996264)" xlink:href="#CMSS17-98"/>
      <use transform="translate(554.28707 166.692211)scale(0.996264)" xlink:href="#CMSS17-117"/>
      <use transform="translate(602.492013 166.692211)scale(0.996264)" xlink:href="#CMSS17-116"/>
      <use transform="translate(636.32358 166.692211)scale(0.996264)" xlink:href="#CMSS17-105"/>
      <use transform="translate(658.504303 166.692211)scale(0.996264)" xlink:href="#CMSS17-111"/>
      <use transform="translate(705.347926 166.692211)scale(0.996264)" xlink:href="#CMSS17-110"/>
      <use transform="translate(0 101.475637)scale(0.996264)" xlink:href="#CMMI12-22"/>
      <use transform="translate(86.36543 101.475637)scale(0.996264)" xlink:href="#CMR17-61"/>
      <use transform="translate(185.754227 101.475637)scale(0.996264)" xlink:href="#CMR17-52"/>
      <use transform="translate(231.444704 101.475637)scale(0.996264)" xlink:href="#CMMI12-58"/>
      <use transform="translate(258.541882 101.475637)scale(0.996264)" xlink:href="#CMR17-49"/>
      <use transform="translate(304.232359 101.475637)scale(0.996264)" xlink:href="#CMR17-50"/>
      <use transform="scale(0.996264)" xlink:href="#CMMI12-27"/>
      <use transform="translate(59.020054 36.153639)scale(0.697382)" xlink:href="#CMR17-50"/>
      <use transform="translate(119.175376 0)scale(0.996264)" xlink:href="#CMR17-61"/>
      <use transform="translate(218.564173 0)scale(0.996264)" xlink:href="#CMR17-48"/>
      <use transform="translate(264.254651 0)scale(0.996264)" xlink:href="#CMMI12-58"/>
      <use transform="translate(291.351828 0)scale(0.996264)" xlink:href="#CMR17-48"/>
      <use transform="translate(337.042305 0)scale(0.996264)" xlink:href="#CMR17-55"/>
     </g>
    </g>
    <g id="line2d_21">
     <path d="M 50.842671 75.100043 
L 70.842671 75.100043 
" style="fill:none;stroke:#ffa500;stroke-dasharray:1.5,2.475;stroke-dashoffset:0;stroke-width:1.5;"/>
    </g>
    <g id="line2d_22"/>
    <g id="text_20">
     <!-- 90\% interval -->
     <defs>
      <path d="M 6.796875 2.71875 
C 9.59375 0.328125 13.203125 -2 19.296875 -2 
C 31.40625 -2 43 11.265625 43 32.734375 
C 43 61.4375 30.5 66.078125 23.796875 66.078125 
C 17.09375 66.078125 12.796875 63.140625 9.09375 58.453125 
C 4.703125 53.078125 3.90625 48.28125 3.90625 42.703125 
C 3.90625 36.046875 5.09375 31.953125 7.90625 27.265625 
C 11.703125 21.203125 15.203125 19.921875 19.09375 19.921875 
C 25 19.921875 30.90625 22.796875 34.90625 27.75 
C 34.203125 14.09375 28.09375 4.171875 19.296875 4.171875 
C 15.703125 4.171875 12.796875 5.296875 9.90625 8.0625 
z
M 34.59375 42.90625 
C 34.703125 42.234375 34.703125 40.96875 34.703125 40.5625 
C 34.703125 32.40625 29.90625 26 22.90625 26 
C 18.296875 26 15.90625 28.328125 14.09375 31.34375 
C 11.90625 35.140625 11.796875 38.828125 11.796875 42.703125 
C 11.796875 46.5 11.796875 50.6875 14.59375 54.859375 
C 16.703125 57.859375 19.296875 60 23.796875 60 
C 33 60 34.5 46.875 34.59375 42.90625 
z
" id="CMSS17-57"/>
      <path d="M 43.09375 31.9375 
C 43.09375 37.578125 43 48.078125 38.90625 56.1875 
C 34.796875 64 28.203125 66.078125 23.5 66.078125 
C 16.703125 66.078125 10.90625 62.109375 7.90625 55.78125 
C 4.703125 49.15625 3.796875 42.328125 3.796875 31.9375 
C 3.796875 24.828125 4.09375 16.109375 7.703125 8.484375 
C 11.796875 0.078125 18.703125 -2 23.40625 -2 
C 29.59375 -2 35.59375 1.265625 39 8.09375 
C 42.5 15.21875 43.09375 23.03125 43.09375 31.9375 
z
M 23.40625 4.078125 
C 15.796875 4.078125 13.5 12.671875 12.796875 15.546875 
C 11.59375 20.46875 11.40625 25.21875 11.40625 33.03125 
C 11.40625 39.15625 11.40625 46.0625 13.296875 51.515625 
C 15.59375 57.828125 19.59375 60 23.40625 60 
C 30.796875 60 33.203125 52.6875 34 50.125 
C 35.5 44.890625 35.5 38.765625 35.5 33.03125 
C 35.5 23.84375 35.5 4.078125 23.40625 4.078125 
z
" id="CMSS17-48"/>
      <path d="M 61.296875 71.609375 
C 61.90625 72.609375 61.90625 73.109375 61.90625 73.203125 
C 61.90625 74.296875 61 75 60.203125 75 
C 59.09375 75 58.59375 74.203125 58.09375 73.203125 
L 17.203125 -1.625 
C 17 -2.015625 16.59375 -2.609375 16.59375 -3.21875 
C 16.59375 -4.3125 17.5 -5 18.40625 -5 
C 19.296875 -5 19.5 -4.609375 20.296875 -3.21875 
z
M 73.09375 14.984375 
C 73.09375 26.53125 66.90625 35 60.09375 35 
C 53.40625 35 47 26.734375 47 14.984375 
C 47 3.25 53.40625 -5 60.09375 -5 
C 67 -5 73.09375 3.453125 73.09375 14.984375 
z
M 60.09375 1.0625 
C 58 1.0625 54.59375 2.953125 54.59375 14.984375 
C 54.59375 26.9375 58 28.921875 60.09375 28.921875 
C 63.796875 28.921875 65.796875 21.65625 65.796875 14.984375 
C 65.796875 8.328125 63.796875 1.0625 60.09375 1.0625 
z
M 31.296875 54.984375 
C 31.296875 66.53125 25.09375 75 18.296875 75 
C 11.59375 75 5.203125 66.734375 5.203125 54.984375 
C 5.203125 43.25 11.59375 35 18.296875 35 
C 25.203125 35 31.296875 43.453125 31.296875 54.984375 
z
M 18.296875 41.0625 
C 16.203125 41.0625 12.796875 42.953125 12.796875 54.984375 
C 12.796875 66.9375 16.203125 68.921875 18.296875 68.921875 
C 22 68.921875 24 61.65625 24 54.984375 
C 24 48.328125 22 41.0625 18.296875 41.0625 
z
" id="CMSS17-37"/>
      <path d="M 41.796875 43 
L 34 43 
L 27.296875 24.3125 
C 25.203125 18.203125 22.203125 9.796875 21.703125 5.5 
L 21.59375 5.5 
C 21.40625 7.3125 20.59375 9.90625 20.09375 11.703125 
C 19.5 13.90625 18.703125 16.5 18.09375 18.3125 
L 9.296875 43 
L 1.296875 43 
L 17.09375 0 
L 26 0 
z
" id="CMSS17-118"/>
     </defs>
     <g transform="translate(78.842671 78.600043)scale(0.1 -0.1)">
      <use transform="scale(0.996264)" xlink:href="#CMSS17-57"/>
      <use transform="translate(46.843624 0)scale(0.996264)" xlink:href="#CMSS17-48"/>
      <use transform="translate(93.687247 0)scale(0.996264)" xlink:href="#CMSS17-37"/>
      <use transform="translate(202.989096 0)scale(0.996264)" xlink:href="#CMSS17-105"/>
      <use transform="translate(225.169819 0)scale(0.996264)" xlink:href="#CMSS17-110"/>
      <use transform="translate(273.374762 0)scale(0.996264)" xlink:href="#CMSS17-116"/>
      <use transform="translate(307.206329 0)scale(0.996264)" xlink:href="#CMSS17-101"/>
      <use transform="translate(348.845151 0)scale(0.996264)" xlink:href="#CMSS17-114"/>
      <use transform="translate(380.754924 0)scale(0.996264)" xlink:href="#CMSS17-118"/>
      <use transform="translate(423.755065 0)scale(0.996264)" xlink:href="#CMSS17-97"/>
      <use transform="translate(468.676986 0)scale(0.996264)" xlink:href="#CMSS17-108"/>
     </g>
    </g>
   </g>
  </g>
 </g>
 <defs>
  <clipPath id="pb9b42d6336">
   <rect height="276.348513" width="399.301622" x="41.842671" y="26.771208"/>
  </clipPath>
 </defs>
</svg>
